<?xml version="1.0" standalone="no"?>
<!DOCTYPE svg PUBLIC "-//W3C//DTD SVG 20010904//EN"
 "http://www.w3.org/TR/2001/REC-SVG-20010904/DTD/svg10.dtd">
<svg version="1.0" xmlns="http://www.w3.org/2000/svg"
 width="1986.000000pt" height="1986.000000pt" viewBox="0 0 1986.000000 1986.000000"
 preserveAspectRatio="xMidYMid meet">

<g transform="translate(0.000000,1986.000000) scale(0.100000,-0.100000)"
fill="#000000" stroke="none">
<path d="M0 9930 l0 -9930 9930 0 9930 0 0 9930 0 9930 -9930 0 -9930 0 0
-9930z m2404 5655 c83 -88 171 -181 196 -206 25 -25 83 -86 129 -135 46 -49
118 -125 160 -169 42 -44 148 -156 236 -249 88 -94 178 -188 200 -211 45 -46
127 -133 355 -374 85 -90 192 -202 238 -248 45 -46 82 -86 82 -89 0 -2 39 -43
86 -91 47 -49 136 -142 198 -207 61 -66 145 -154 186 -197 41 -42 130 -135
196 -205 67 -71 158 -165 201 -210 44 -44 84 -87 89 -95 5 -8 48 -52 96 -98
l87 -84 153 53 c84 29 158 56 163 60 6 4 37 15 70 24 33 9 69 21 80 26 27 13
482 157 570 180 39 10 120 33 180 50 169 48 603 155 770 189 83 17 179 38 215
46 175 39 649 115 960 154 1317 167 2473 142 3815 -80 208 -34 253 -43 630
-119 172 -35 699 -166 860 -214 44 -14 130 -39 190 -56 61 -17 119 -35 130
-40 11 -5 85 -29 165 -54 159 -49 448 -148 495 -170 17 -7 56 -21 88 -31 l58
-18 65 64 c36 35 72 70 80 77 8 8 21 27 29 42 8 16 24 31 35 35 11 4 28 18 37
32 9 13 67 75 130 136 62 61 113 115 113 120 0 5 69 79 154 165 85 87 166 172
182 191 15 18 90 96 166 172 76 76 138 142 138 146 0 5 72 80 160 168 88 88
160 164 160 169 0 6 69 80 154 165 84 86 180 185 212 221 32 36 104 112 159
170 56 58 170 177 255 265 84 88 159 164 167 168 7 4 13 13 13 20 0 6 73 86
162 178 90 92 226 233 302 313 105 111 142 144 148 133 4 -8 12 -59 18 -113
16 -145 60 -447 145 -989 14 -88 32 -207 41 -265 8 -58 17 -112 19 -120 3 -8
11 -60 19 -115 8 -55 22 -143 30 -195 52 -331 76 -497 76 -527 0 -30 35 -266
131 -883 17 -107 35 -224 40 -260 5 -36 16 -103 24 -150 8 -47 23 -143 34
-215 73 -471 91 -593 91 -626 0 -21 9 -96 20 -166 11 -71 29 -184 40 -253 10
-69 31 -198 45 -287 14 -89 25 -164 25 -167 0 -3 35 -33 78 -67 42 -34 89 -74
103 -88 14 -14 45 -42 69 -61 185 -150 513 -453 788 -729 264 -264 238 -217
214 -381 -6 -41 -18 -151 -27 -245 -9 -93 -27 -253 -41 -355 -14 -102 -30
-225 -35 -275 -21 -203 -134 -705 -241 -1075 -28 -96 -57 -202 -65 -235 -40
-157 -207 -618 -312 -858 -12 -27 -21 -56 -21 -64 0 -23 -98 -238 -216 -475
-57 -114 -104 -212 -104 -218 0 -16 -132 -252 -267 -474 -29 -48 -53 -92 -53
-98 0 -11 -115 -192 -227 -355 -46 -68 -87 -131 -90 -140 -8 -21 -104 -154
-220 -306 -46 -59 -89 -117 -95 -129 -17 -30 -79 -110 -138 -178 -131 -152
-177 -207 -191 -230 -35 -54 -413 -456 -562 -597 -43 -40 -77 -76 -77 -80 0
-5 -28 -33 -62 -63 -33 -30 -82 -74 -107 -98 -25 -24 -66 -60 -90 -80 -25 -20
-66 -57 -91 -82 -26 -25 -101 -90 -168 -143 -66 -54 -122 -101 -124 -106 -3
-8 -136 -112 -237 -184 -36 -26 -70 -53 -76 -60 -5 -7 -75 -59 -155 -114 -80
-56 -152 -107 -160 -115 -15 -13 -190 -127 -280 -183 -25 -15 -47 -31 -50 -35
-3 -4 -45 -31 -95 -60 -49 -29 -121 -73 -160 -96 -38 -24 -142 -82 -230 -130
-88 -47 -200 -108 -250 -135 -49 -28 -121 -64 -159 -81 -39 -17 -76 -37 -84
-44 -7 -8 -18 -14 -23 -14 -5 0 -48 -18 -95 -40 -47 -23 -109 -50 -137 -61
-29 -11 -56 -24 -62 -29 -12 -9 -177 -79 -250 -105 -27 -11 -59 -24 -70 -31
-11 -7 -47 -22 -80 -33 -33 -11 -103 -36 -155 -56 -122 -47 -249 -91 -326
-114 -34 -10 -70 -23 -80 -29 -11 -6 -44 -17 -74 -25 -30 -9 -95 -27 -145 -42
-371 -109 -509 -143 -910 -223 -303 -61 -617 -107 -955 -142 -485 -50 -1249
-54 -1780 -10 -548 46 -1300 179 -1755 311 -38 12 -101 30 -140 40 -123 35
-309 92 -325 99 -8 4 -80 29 -160 55 -80 26 -149 51 -155 55 -5 5 -33 15 -62
23 -29 9 -67 23 -85 31 -18 8 -62 26 -98 40 -144 54 -222 85 -233 93 -7 5 -34
18 -62 28 -27 10 -70 29 -95 41 -25 13 -48 24 -52 24 -5 0 -55 22 -113 50 -58
27 -109 50 -114 50 -4 0 -19 8 -32 18 -13 10 -55 31 -94 47 -38 16 -72 32 -75
36 -3 3 -72 41 -155 84 -82 43 -157 83 -165 90 -8 7 -49 30 -90 50 -41 21 -77
41 -80 44 -3 4 -39 26 -80 50 -111 62 -436 266 -475 298 -5 5 -44 31 -85 58
-41 28 -77 52 -80 55 -3 3 -21 17 -40 30 -19 14 -39 28 -45 32 -5 5 -59 44
-118 88 -59 43 -122 91 -140 105 -43 35 -51 42 -127 100 -36 28 -97 77 -136
110 -38 33 -92 78 -119 100 -26 22 -60 51 -75 65 -15 14 -47 42 -71 64 -273
238 -644 614 -934 946 -16 19 -48 55 -71 80 -56 63 -226 275 -314 395 -41 55
-78 105 -82 110 -75 95 -356 510 -432 635 -59 99 -136 226 -145 240 -6 8 -29
49 -52 90 -23 41 -51 91 -62 110 -122 218 -293 557 -374 745 -469 1080 -719
2039 -823 3151 -11 116 -21 217 -24 225 -2 8 -7 33 -10 57 l-6 43 187 191
c285 289 635 611 948 873 72 59 133 117 137 129 4 12 16 82 27 156 51 348 63
424 81 545 11 72 38 252 60 400 22 149 50 331 61 405 45 300 59 391 79 525 51
341 62 417 80 535 11 69 29 188 40 265 12 77 30 196 40 265 11 69 28 186 39
260 11 74 39 257 61 405 22 149 45 302 51 340 5 39 21 144 35 235 14 91 29
192 34 225 5 33 21 137 35 230 14 94 37 249 51 345 13 96 27 182 30 190 3 10
25 -7 71 -55 36 -39 134 -142 217 -230z"/>
<path d="M6050 7780 c-322 -33 -597 -163 -817 -386 -57 -57 -103 -109 -103
-116 0 -6 -18 -39 -40 -72 -98 -152 -130 -265 -130 -463 0 -121 4 -153 25
-227 28 -98 61 -168 111 -239 19 -26 34 -54 34 -62 0 -9 36 -52 80 -97 44 -44
80 -84 80 -87 0 -14 192 -137 280 -181 323 -160 695 -188 1070 -80 41 12 79
25 85 30 5 4 45 22 87 40 42 17 78 35 80 38 2 4 31 24 65 44 67 39 253 193
253 209 0 5 22 37 49 72 68 87 103 146 112 187 4 19 20 73 35 120 25 77 28 99
29 235 0 142 -2 156 -33 260 -42 138 -59 173 -127 260 -30 39 -59 80 -64 91
-5 12 -33 41 -62 65 -29 24 -68 59 -88 78 -20 18 -56 45 -81 59 -25 14 -59 35
-75 48 -38 27 -205 99 -282 120 -182 51 -402 71 -573 54z"/>
<path d="M13560 7783 c-101 -7 -207 -26 -299 -53 -100 -30 -281 -104 -290
-119 -4 -5 -37 -28 -76 -51 -38 -23 -83 -54 -99 -69 -90 -80 -146 -135 -146
-144 0 -5 -15 -28 -34 -51 -65 -80 -106 -156 -142 -262 -67 -202 -68 -374 -3
-568 37 -113 57 -152 125 -243 30 -40 54 -76 54 -81 0 -21 172 -166 257 -218
31 -19 59 -38 62 -43 9 -14 169 -82 256 -109 426 -131 893 -66 1241 175 109
75 245 224 320 349 77 130 101 199 112 330 8 94 1 290 -14 359 -9 42 -66 164
-106 227 -19 29 -42 64 -51 78 -8 14 -55 66 -104 116 -208 214 -497 345 -826
374 -109 10 -143 10 -237 3z"/>
<path d="M9760 5844 c-244 -37 -375 -98 -520 -244 -85 -84 -99 -104 -127 -175
-47 -117 -56 -165 -51 -268 4 -70 12 -108 32 -157 15 -36 32 -80 37 -97 11
-38 153 -187 217 -228 39 -26 42 -31 42 -72 0 -67 -26 -180 -65 -279 -19 -49
-35 -95 -35 -102 0 -19 -84 -168 -132 -236 -15 -21 -28 -46 -28 -54 0 -15 -39
-68 -108 -147 -25 -27 -47 -57 -51 -67 -10 -27 -199 -216 -281 -281 -41 -32
-97 -70 -125 -84 -27 -14 -63 -36 -80 -48 -36 -27 -265 -145 -282 -145 -6 0
-33 -9 -58 -20 -70 -30 -181 -57 -345 -85 -295 -50 -636 -28 -930 61 -96 30
-278 105 -318 132 -15 10 -44 27 -65 37 -52 27 -204 150 -247 199 -19 23 -56
64 -82 92 -27 28 -48 56 -48 62 0 7 -4 12 -10 12 -5 0 -10 5 -10 11 0 6 -13
28 -28 48 -16 20 -37 52 -48 71 -10 19 -25 39 -31 43 -7 4 -13 15 -13 22 0 8
-3 15 -8 15 -4 0 -13 19 -20 42 -7 23 -22 54 -33 69 -10 15 -19 33 -19 41 0 7
-18 32 -40 56 -22 24 -40 47 -40 52 0 6 -9 15 -20 22 -11 7 -20 19 -20 26 0
14 -47 35 -60 27 -8 -5 8 -86 20 -95 8 -7 40 -92 40 -109 0 -7 9 -24 20 -38
11 -14 20 -34 20 -44 0 -10 16 -34 35 -54 19 -21 37 -47 41 -59 3 -11 14 -30
24 -41 10 -11 21 -35 25 -52 3 -18 10 -33 15 -33 11 0 140 -155 140 -169 0 -6
5 -11 10 -11 6 0 10 -7 10 -15 0 -9 15 -23 34 -32 19 -9 67 -52 108 -95 40
-44 92 -91 115 -105 24 -14 43 -31 43 -38 0 -8 10 -17 23 -20 30 -9 94 -52
137 -91 19 -17 46 -35 60 -39 14 -4 27 -11 30 -15 6 -8 153 -83 198 -100 17
-7 32 -16 32 -19 0 -9 66 -41 83 -41 7 0 46 -13 87 -29 352 -137 842 -178
1275 -105 508 84 987 334 1331 695 53 55 200 239 269 336 2 4 149 -199 157
-217 9 -21 177 -190 269 -271 102 -90 198 -157 397 -276 60 -36 280 -133 372
-165 530 -179 1140 -184 1635 -14 22 8 63 22 90 31 28 10 66 26 85 36 269 135
327 166 342 181 30 30 112 88 141 99 15 6 32 20 38 30 5 10 16 19 24 19 18 0
125 98 125 114 0 13 96 96 111 96 4 0 33 34 64 75 31 41 77 95 101 120 30 31
44 54 44 73 0 16 8 32 20 40 11 7 20 20 20 30 0 9 18 40 40 67 22 28 40 58 40
68 0 9 5 17 10 17 6 0 10 6 10 14 0 7 7 19 15 26 8 7 15 23 15 36 0 12 4 25 9
29 5 3 12 19 16 35 4 17 10 30 14 30 10 0 30 89 21 95 -20 12 -55 -15 -106
-80 -30 -41 -62 -76 -70 -79 -8 -3 -14 -12 -14 -20 0 -8 -9 -30 -19 -48 -11
-18 -23 -50 -26 -70 -4 -21 -11 -38 -16 -38 -5 0 -9 -4 -9 -9 0 -10 -70 -116
-117 -177 -12 -17 -23 -36 -23 -42 0 -7 -4 -12 -8 -12 -5 0 -48 -45 -97 -100
-159 -180 -323 -285 -591 -380 -350 -124 -728 -145 -1129 -61 -107 23 -224 58
-239 72 -6 5 -18 9 -27 9 -21 0 -293 138 -297 151 -2 5 -29 23 -60 39 -91 46
-206 140 -315 258 -118 126 -259 303 -268 335 -3 12 -38 76 -77 141 -40 65
-72 124 -72 131 0 7 -11 38 -25 70 -38 84 -71 210 -79 292 l-6 71 46 27 c67
39 214 189 214 218 0 12 6 32 14 43 35 49 60 157 60 254 0 96 -4 110 -66 273
-31 80 -161 208 -266 261 -31 16 -59 32 -62 36 -10 14 -171 62 -257 76 -79 13
-327 17 -393 8z"/>
</g>
</svg>
